<?xml version="1.0" encoding="UTF-8"?>
<svg width="512px" height="512px" viewBox="0 0 512 512" version="1.1" xmlns="http://www.w3.org/2000/svg" xmlns:xlink="http://www.w3.org/1999/xlink">
    <title>Logo</title>
    <g id="Logo" stroke="none" stroke-width="1" fill="none" fill-rule="evenodd">
        <g id="工具" transform="translate(6.000000, 6.000000)">
            <circle id="椭圆形" fill="#FFFFFF" cx="250" cy="250" r="250"></circle>
            <path d="M385.769313,289.167114 C385.769313,289.167114 391.762995,237.433348 359.615064,223.747167 L358.797744,223.747167 C355.256023,223.747167 350.079661,222.378549 344.9033,226.758127 L256.632711,312.707346 C259.357112,319.82416 258.267351,325.298632 253.09099,330.499381 L168.362122,414.532535 L165.637721,416.996047 C149.0275,432.51735 103.521381,386.339001 119.322906,370.463031 L122.047307,367.725795 L206.776174,282.597747 C210.317896,279.03934 213.859617,278.218169 218.218658,278.218169 C220.943059,278.218169 223.39502,279.03934 226.119421,279.03934 L304.582166,200.206935 C308.123888,195.006186 316.84197,185.425859 310.575848,171.192231 C304.582166,160.790733 292.322362,157.232326 286.05624,155.31626 C278.155478,155.31626 270.254715,146.557104 263.443713,139.44029 L260.719312,136.703054 C251.183909,127.122727 248.459508,126.301556 259.901992,115.626334 L289.870402,86.0641827 C295.046763,80.8634338 297.771164,78.9473684 300.223125,78.9473684 C303.764846,78.9473684 306.216807,82.5057756 310.575848,86.8853536 L313.300249,89.6225899 C319.293931,95.6445097 327.194694,102.761324 328.012014,109.878138 C328.829334,111.52048 330.736415,119.458465 337.547417,128.217621 C340.271818,131.776028 349.807221,128.217621 352.259182,131.776028 L400.753518,179.951387 C437.53293,216.904076 406.7472,306.411702 406.7472,306.411702 L385.769313,289.167114 Z M257.450031,214.16684 L213.498405,258.55993 L181.439246,226.484403 C173.538484,230.04281 165.637721,232.506323 158.826719,232.506323 C118.505586,232.506323 80.0915332,193.911292 80.0915332,153.673919 L87.1749755,146.557104 C120.412666,179.951387 113.329224,176.39298 134.307111,176.39298 C150.108636,176.39298 176.262885,150.936682 176.262885,134.239541 C176.262885,113.983993 178.987285,119.458465 146.566915,86.8853536 L153.650357,80.0422629 C193.69905,79.221092 232.113103,118.637294 232.113103,158.874667 C232.113103,165.991482 229.388702,173.655743 226.119421,182.688623 L257.450031,214.16684 Z M373.509509,357.324297 C383.044912,357.324297 390.945675,365.262282 390.945675,374.842609 C390.945675,384.422936 383.044912,392.360921 373.509509,392.360921 C363.974106,392.360921 356.073343,384.422936 356.073343,374.842609 C356.073343,364.988558 363.974106,357.324297 373.509509,357.324297 Z M333.460816,379.222187 L362.339465,417.817218 L377.05123,422.196796 L419.007004,380.043358 L414.647962,364.167387 L377.05123,336.247578 L320.383692,279.03934 L277.065926,322.609543 L333.460816,379.222187 Z" id="形状" fill="#008080" fill-rule="nonzero"></path>
        </g>
    </g>
</svg>